<?xml version="1.0" standalone="no"?>
<!DOCTYPE svg PUBLIC "-//W3C//DTD SVG 20010904//EN"
 "http://www.w3.org/TR/2001/REC-SVG-20010904/DTD/svg10.dtd">
<svg version="1.0" xmlns="http://www.w3.org/2000/svg"
 width="50.000000pt" height="44.000000pt" viewBox="0 0 50.000000 44.000000"
 preserveAspectRatio="xMidYMid meet">
<metadata>
Created by potrace 1.16, written by Peter Selinger 2001-2019
</metadata>
<g transform="translate(0.000000,44.000000) scale(0.100000,-0.100000)"
fill="#000000" stroke="none">
<path d="M126 376 c-98 -59 -117 -196 -38 -280 112 -120 314 -40 314 125 0
139 -157 227 -276 155z m142 -15 c10 -6 5 -11 -17 -20 -19 -9 -35 -26 -44 -50
-11 -27 -24 -40 -52 -50 -27 -9 -41 -23 -52 -49 -11 -27 -17 -32 -24 -21 -29
46 11 148 71 180 36 20 95 25 118 10z m72 -46 c13 -16 6 -35 -14 -35 -22 0
-64 -39 -68 -63 -2 -14 -17 -29 -43 -43 -24 -12 -46 -33 -55 -52 -14 -29 -18
-31 -33 -19 -17 12 -17 15 1 57 15 35 27 48 55 58 27 10 39 22 49 49 18 50 82
79 108 48z m30 -99 c0 -53 -30 -101 -80 -127 -38 -21 -110 -26 -110 -8 0 24
24 52 56 65 22 9 40 27 51 51 16 33 52 62 76 63 4 0 7 -20 7 -44z"/>
</g>
</svg>
